<?xml version="1.0" standalone="no"?>
<!DOCTYPE svg PUBLIC "-//W3C//DTD SVG 20010904//EN"
 "http://www.w3.org/TR/2001/REC-SVG-20010904/DTD/svg10.dtd">
<svg version="1.0" xmlns="http://www.w3.org/2000/svg"
 width="712.000000pt" height="712.000000pt" viewBox="0 0 712.000000 712.000000"
 preserveAspectRatio="xMidYMid meet">
<metadata>
Created by potrace 1.11, written by Peter Selinger 2001-2013
</metadata>
<g transform="translate(0.000000,712.000000) scale(0.100000,-0.100000)"
fill="#000000" stroke="none">
<path d="M3425 7050 c-60 -38 -114 -73 -120 -77 -5 -4 -50 -33 -100 -62 -49
-30 -92 -58 -95 -61 -3 -4 -10 -9 -15 -11 -15 -6 -122 -72 -428 -264 -153 -96
-282 -175 -288 -175 -5 0 -9 -4 -9 -8 0 -5 -12 -15 -27 -23 -16 -8 -30 -16
-33 -19 -3 -3 -48 -32 -100 -63 -107 -65 -110 -67 -490 -307 -151 -95 -286
-179 -300 -187 -14 -8 -245 -152 -515 -322 l-490 -308 -3 -2581 -2 -2582 1590
0 1589 0 143 73 c79 39 145 74 148 77 3 3 51 28 108 55 l104 50 1023 0 1023 0
22 25 c12 14 83 87 158 164 l137 138 2 432 c1 237 2 436 2 443 1 7 57 40 126
75 l125 63 0 1802 0 1801 -37 22 c-21 13 -51 30 -68 40 -16 10 -108 65 -204
124 -95 58 -177 106 -182 106 -5 0 -9 5 -9 10 0 6 -4 10 -9 10 -7 0 -168 94
-221 130 -48 32 -183 110 -190 110 -5 0 -10 3 -12 8 -4 9 -206 132 -218 132
-4 0 -10 3 -12 8 -1 4 -48 34 -103 66 -55 32 -123 74 -152 92 -28 19 -56 34
-62 34 -6 0 -11 4 -11 8 0 5 -19 18 -42 31 -24 12 -56 30 -73 40 -16 10 -120
73 -230 140 -110 67 -207 125 -215 130 -8 5 -60 37 -114 70 -54 34 -103 61
-107 61 -5 0 -9 5 -9 10 0 6 -4 10 -10 10 -5 0 -78 42 -162 94 -243 149 -516
314 -587 356 -14 8 -50 30 -79 48 -29 17 -53 32 -55 31 -1 0 -51 -31 -112 -69z
m197 -277 c44 -27 87 -52 96 -58 9 -5 46 -28 82 -50 75 -46 79 -48 157 -94 32
-18 65 -39 73 -46 8 -6 35 -23 60 -36 25 -13 47 -26 50 -29 3 -3 43 -29 90
-56 47 -28 168 -102 270 -164 102 -62 217 -132 255 -155 39 -23 185 -112 325
-197 140 -85 291 -176 335 -203 44 -27 98 -60 120 -74 22 -14 42 -26 45 -26 3
0 25 -14 50 -30 73 -47 503 -307 527 -319 13 -6 23 -14 23 -18 0 -5 5 -8 11
-8 6 0 31 -13 56 -30 24 -16 46 -30 48 -30 2 0 39 -22 82 -49 l78 -48 1 -1652
1 -1651 -111 -56 c-61 -31 -174 -89 -251 -129 -143 -74 -400 -206 -785 -402
-118 -61 -303 -155 -410 -210 -107 -55 -307 -158 -445 -228 -376 -192 -479
-246 -492 -257 -7 -6 -13 -7 -13 -4 0 4 -19 -4 -42 -17 -24 -14 -117 -63 -208
-109 l-165 -84 -1435 1 -1435 0 0 2378 c0 1308 2 2382 5 2386 3 5 51 37 108
72 125 78 201 126 470 294 560 351 758 475 769 485 7 5 14 10 16 10 2 0 100
60 218 134 118 74 270 169 339 212 69 42 154 96 190 119 68 45 441 278 475
298 11 7 34 22 52 34 17 13 34 23 37 23 3 0 38 21 78 47 73 48 109 70 117 72
2 1 40 -20 83 -46z m2108 -5738 c16 -8 37 -26 48 -40 l20 -25 34 34 c54 54
131 66 200 30 75 -39 100 -151 54 -247 -28 -60 -51 -86 -161 -182 -44 -38 -89
-78 -99 -87 -30 -27 -15 -35 -146 82 -40 36 -86 76 -102 90 -94 78 -118 250
-44 319 50 47 134 58 196 26z"/>
<path d="M4958 5755 c-2 -2 -28 -6 -58 -10 -30 -4 -66 -8 -80 -10 -75 -10
-107 -15 -130 -18 -14 -2 -49 -7 -77 -11 -39 -6 -53 -12 -54 -24 -1 -22 -1
-2132 0 -2154 1 -17 23 -18 101 -3 14 2 45 7 70 11 25 3 52 8 60 9 8 2 20 4
26 4 7 1 10 59 9 189 -1 103 0 192 2 198 3 7 29 15 60 19 30 4 65 8 77 11 11
2 41 6 66 8 25 3 54 7 65 10 68 14 88 11 96 -14 9 -30 80 -281 83 -295 15 -57
19 -65 35 -61 9 3 39 8 66 11 28 4 61 9 75 11 14 3 50 7 80 10 30 3 56 7 57 8
2 1 -4 27 -13 56 -9 30 -18 61 -20 69 -4 16 -6 25 -69 241 -20 69 -38 132 -40
140 -2 8 -11 40 -20 70 -9 30 -18 64 -20 76 -3 12 -11 40 -19 63 -9 22 -13 41
-11 41 3 0 0 12 -6 28 -6 15 -19 56 -29 92 -10 36 -28 99 -39 140 -12 41 -23
82 -26 90 -2 8 -16 56 -30 105 -15 50 -29 101 -32 114 -2 14 -6 28 -9 32 -3 5
-13 39 -23 76 -11 37 -33 118 -51 178 -17 61 -33 117 -35 125 -2 8 -15 56 -30
105 -15 50 -30 104 -35 120 -25 99 -42 142 -55 142 -8 0 -16 -1 -17 -2z m-125
-472 c4 -23 16 -68 31 -118 1 -5 8 -30 15 -55 7 -25 37 -134 67 -244 31 -109
57 -206 59 -215 2 -9 13 -50 25 -91 12 -41 28 -97 35 -125 8 -27 21 -74 29
-102 13 -49 13 -53 -2 -54 -10 -1 -26 -3 -37 -5 -67 -10 -180 -25 -210 -27
-23 -2 -22 -29 -28 661 -3 365 1 454 16 375z"/>
<path d="M3765 5620 c-27 -4 -72 -10 -100 -14 -27 -4 -63 -9 -80 -11 -16 -3
-46 -7 -65 -9 -44 -6 -167 -25 -200 -30 -14 -3 -28 -5 -32 -5 -4 -1 -6 -7 -3
-13 2 -7 6 -35 9 -63 3 -27 9 -63 12 -80 4 -16 6 -37 6 -45 0 -8 3 -37 8 -65
5 -27 12 -72 15 -100 3 -27 7 -61 10 -75 2 -14 7 -45 10 -70 3 -25 7 -54 9
-65 2 -11 7 -45 10 -76 4 -31 8 -65 10 -75 2 -11 7 -46 12 -79 4 -33 8 -62 9
-65 0 -3 5 -31 9 -64 4 -32 9 -68 11 -80 2 -11 6 -41 9 -66 4 -25 8 -56 11
-70 2 -14 7 -47 10 -75 3 -27 10 -77 15 -110 5 -33 11 -80 14 -105 3 -25 8
-54 10 -65 2 -11 7 -47 11 -80 4 -32 9 -68 11 -78 2 -11 6 -45 9 -76 4 -31 8
-63 10 -71 3 -8 7 -35 10 -60 3 -25 7 -54 9 -65 2 -11 8 -49 12 -85 4 -36 9
-68 10 -72 1 -5 2 -17 3 -28 1 -19 6 -20 62 -15 34 3 64 7 68 9 3 2 33 7 66
10 33 4 67 9 75 11 8 2 36 6 62 9 44 5 170 25 193 30 75 18 162 61 200 99 54
55 98 147 111 233 12 75 6 238 -12 329 -2 11 -6 40 -9 65 -3 25 -8 60 -11 78
-3 17 -7 49 -9 70 -3 20 -7 48 -10 62 -2 14 -7 52 -11 85 -3 33 -7 62 -9 65
-2 3 -6 33 -10 67 -3 34 -8 72 -11 85 -2 13 -7 39 -9 58 -3 19 -7 49 -10 65
-2 17 -7 53 -10 80 -4 28 -8 61 -11 75 -2 14 -7 48 -10 75 -31 267 -114 436
-249 504 -79 40 -167 54 -260 41z m125 -332 c23 -16 40 -39 52 -71 17 -47 20
-57 33 -147 4 -25 8 -56 10 -70 3 -14 7 -47 10 -75 3 -27 7 -61 10 -75 2 -14
6 -45 10 -70 3 -25 13 -92 21 -150 9 -58 17 -118 19 -135 8 -66 18 -131 21
-150 2 -11 7 -44 10 -74 3 -30 7 -57 9 -60 1 -3 6 -35 10 -71 4 -36 9 -74 12
-85 11 -47 9 -164 -2 -193 -11 -24 -72 -83 -78 -75 -1 1 -20 -2 -42 -7 -22 -5
-68 -12 -102 -16 -56 -5 -62 -4 -62 13 0 10 -2 34 -5 53 -6 47 -15 108 -21
145 -3 17 -7 48 -10 70 -3 22 -8 51 -10 65 -3 14 -7 48 -10 75 -6 54 -12 95
-19 135 -3 14 -7 52 -11 85 -4 32 -8 62 -10 65 -2 3 -6 28 -9 55 -3 28 -7 66
-10 85 -3 19 -10 71 -16 115 -6 44 -13 95 -15 113 -3 17 -7 49 -10 70 -3 20
-8 47 -10 59 -3 12 -8 46 -11 75 -11 93 -12 100 -30 221 -3 21 0 27 13 27 19
1 97 11 100 14 1 0 28 2 60 4 48 2 65 -2 93 -20z"/>
<path d="M2708 5458 c-18 -4 -58 -10 -88 -13 -30 -4 -56 -7 -56 -8 -1 -1 2
-24 6 -52 7 -45 17 -116 24 -170 2 -11 6 -45 10 -75 8 -56 13 -89 21 -137 2
-16 6 -48 9 -73 8 -63 16 -119 21 -149 2 -14 6 -44 9 -66 3 -22 8 -60 12 -85
3 -25 7 -56 9 -70 1 -14 5 -38 8 -55 4 -16 9 -55 13 -85 10 -81 12 -98 24
-174 6 -38 9 -70 7 -72 -1 -2 -24 52 -49 119 -26 67 -66 169 -88 227 -23 58
-45 116 -50 130 -5 14 -71 185 -148 380 l-139 355 -44 -2 c-47 -1 -135 -11
-159 -18 -8 -2 -42 -7 -75 -10 -91 -10 -97 -13 -91 -43 3 -15 8 -46 11 -69 9
-73 15 -118 20 -143 3 -14 7 -51 10 -84 4 -33 8 -63 11 -67 2 -4 6 -29 8 -56
3 -26 7 -66 11 -88 11 -80 25 -171 29 -205 14 -97 17 -117 21 -145 3 -16 7
-55 10 -85 4 -30 8 -63 11 -73 3 -10 7 -37 9 -60 2 -24 6 -56 10 -72 5 -31 13
-85 20 -145 3 -19 6 -45 9 -57 3 -12 7 -46 10 -75 4 -29 8 -62 10 -73 4 -24
17 -114 22 -159 2 -17 5 -41 8 -53 2 -12 7 -49 11 -82 3 -33 8 -70 11 -83 5
-24 9 -53 19 -133 3 -27 8 -59 10 -70 2 -11 4 -24 4 -28 1 -4 25 -5 54 -2 141
18 212 31 210 40 -1 6 -4 35 -7 65 -4 30 -8 66 -11 80 -2 14 -7 43 -10 65 -3
22 -8 56 -11 75 -2 19 -6 49 -8 65 -4 29 -14 105 -21 155 -2 14 -7 48 -11 75
-3 28 -8 59 -10 70 -2 11 -6 40 -9 65 -3 25 -8 56 -10 70 -3 14 -7 48 -10 75
-3 28 -8 64 -11 80 -3 17 -7 42 -9 56 -2 14 -8 59 -14 100 -17 116 -22 151
-26 189 -2 19 -6 51 -9 70 -21 129 -23 151 -12 138 7 -7 18 -31 25 -53 7 -22
19 -53 26 -70 7 -16 56 -142 109 -280 53 -137 101 -259 105 -270 5 -11 37 -92
71 -180 34 -88 66 -171 72 -185 14 -34 17 -39 93 -238 l67 -173 61 6 c34 4 64
8 67 10 3 1 34 6 70 10 104 10 102 9 96 68 -4 46 -13 109 -31 237 -3 20 -7 45
-9 56 -2 12 -7 45 -11 75 -3 30 -8 65 -10 79 -2 14 -7 45 -10 70 -3 25 -8 56
-10 70 -3 14 -7 45 -10 70 -3 25 -10 77 -16 115 -5 39 -12 93 -15 120 -3 28
-8 58 -11 68 -3 11 -7 39 -9 65 -2 25 -6 52 -8 61 -3 9 -8 41 -11 71 -3 30 -8
66 -10 80 -10 52 -16 93 -19 128 -2 20 -7 53 -10 72 -3 19 -9 53 -11 75 -3 22
-8 56 -11 75 -2 19 -6 49 -8 65 -3 28 -8 61 -22 155 -2 19 -6 49 -8 65 -3 17
-8 53 -12 80 -11 75 -12 88 -13 113 -1 21 -5 23 -45 20 -25 -2 -60 -6 -78 -10z"/>
<path d="M1699 5316 c-2 -2 -26 -7 -54 -10 -52 -7 -134 -19 -147 -22 -5 -1
-24 -2 -44 -3 l-36 -1 7 -67 c4 -38 9 -77 11 -88 9 -46 13 -72 18 -117 3 -26
8 -63 11 -82 3 -20 7 -52 10 -72 3 -19 7 -56 10 -82 3 -26 8 -54 10 -62 2 -8
7 -41 10 -73 4 -32 8 -68 11 -80 2 -12 6 -42 9 -67 3 -25 8 -56 10 -70 9 -49
15 -90 20 -132 2 -24 7 -61 10 -83 4 -22 8 -49 9 -60 2 -11 7 -47 11 -80 4
-33 9 -69 11 -80 2 -11 7 -40 10 -65 3 -25 7 -56 10 -70 2 -14 6 -45 9 -70 3
-25 8 -54 10 -65 2 -11 7 -47 11 -80 3 -33 8 -62 9 -65 2 -3 7 -37 10 -75 4
-38 9 -78 11 -90 5 -23 11 -62 19 -125 18 -145 18 -145 50 -144 17 1 55 5 85
10 30 4 63 8 73 8 9 0 17 3 17 6 0 3 12 5 28 4 55 -2 64 5 57 45 -4 20 -9 54
-11 76 -4 45 -11 98 -18 135 -2 14 -7 48 -11 75 -3 28 -8 59 -10 70 -2 11 -7
43 -10 70 -10 77 -15 116 -20 144 -2 14 -7 49 -10 76 -6 48 -9 66 -19 130 -2
17 -7 53 -11 80 -8 67 -15 115 -20 145 -2 14 -7 45 -10 70 -3 25 -10 79 -16
120 -6 41 -12 84 -14 95 -1 11 -6 47 -11 80 -4 33 -8 67 -9 75 -1 8 -4 29 -8
45 -4 17 -9 53 -12 80 -3 28 -7 64 -10 80 -3 17 -7 47 -10 68 -3 20 -7 54 -10
75 -3 20 -7 51 -10 67 -2 17 -7 53 -10 80 -3 28 -8 62 -11 77 -3 15 -7 41 -9
59 -5 33 -9 42 -16 35z"/>
<path d="M6069 3586 c-3 -3 -27 -8 -54 -11 -28 -3 -61 -8 -75 -10 -24 -5 -85
-13 -140 -20 -24 -3 -270 -38 -355 -50 -56 -9 -76 -15 -71 -24 3 -4 8 -30 11
-57 4 -27 8 -60 11 -74 2 -14 7 -45 9 -70 3 -25 7 -56 10 -70 3 -14 8 -45 11
-70 2 -25 7 -56 9 -70 2 -14 7 -41 9 -60 3 -19 8 -53 11 -75 4 -22 8 -53 10
-70 4 -32 10 -75 20 -140 4 -22 8 -51 10 -65 7 -54 14 -107 19 -145 3 -22 8
-56 11 -75 6 -36 9 -60 20 -140 9 -68 14 -102 19 -130 3 -14 8 -47 11 -75 3
-27 7 -57 10 -65 2 -8 6 -37 9 -65 3 -27 8 -60 10 -72 3 -12 7 -48 11 -80 3
-32 8 -65 10 -73 2 -8 6 -37 10 -65 10 -83 17 -115 26 -115 4 0 28 11 51 24
24 13 138 72 253 131 375 193 370 190 369 211 -3 33 -13 95 -19 115 -5 15 -13
18 -38 14 -49 -9 -78 -13 -132 -20 -27 -3 -78 -10 -113 -16 -34 -5 -84 -12
-110 -15 -25 -3 -51 -6 -56 -7 -10 -2 -19 40 -31 133 -3 30 -8 62 -10 70 -2 8
-7 40 -10 70 -4 30 -9 70 -11 87 -2 18 -1 32 4 31 4 -1 43 3 87 10 44 6 103
14 130 17 28 3 64 9 80 12 17 3 36 6 43 6 16 0 15 25 -7 172 -10 66 -22 119
-27 118 -5 0 -31 -4 -59 -7 -27 -3 -59 -7 -70 -10 -11 -2 -47 -7 -80 -11 -33
-3 -79 -10 -102 -14 -24 -5 -43 -6 -44 -2 0 3 -2 13 -3 21 -2 8 -6 42 -10 75
-9 69 -15 119 -22 155 -2 14 -6 45 -10 70 -3 25 -7 52 -9 60 -5 18 -17 125
-19 160 -1 26 -2 26 139 44 28 3 61 8 75 10 32 6 102 15 165 22 66 7 76 11 70
26 -2 7 -7 38 -10 68 -3 30 -7 66 -9 80 -2 14 -7 44 -10 68 -6 54 -20 75 -37
58z"/>
<path d="M4682 3449 c-83 -21 -119 -38 -168 -81 -85 -74 -128 -193 -128 -343
1 -117 23 -240 57 -315 11 -25 21 -47 21 -50 1 -3 18 -32 38 -66 52 -85 143
-181 267 -281 219 -178 312 -297 327 -420 3 -26 7 -59 9 -71 14 -120 -117
-206 -219 -143 -53 33 -75 96 -90 253 -4 40 -13 61 -24 54 -4 -2 -25 -7 -47
-10 -208 -28 -202 -27 -199 -49 33 -265 94 -412 208 -498 60 -45 110 -61 208
-65 85 -3 197 22 258 58 39 24 113 98 118 119 2 8 7 16 11 19 11 7 29 58 42
115 14 63 13 212 -1 285 -6 30 -14 66 -16 80 -9 42 -50 137 -85 197 -41 67
-176 207 -279 289 -41 32 -80 64 -86 69 -6 6 -29 26 -51 46 -21 20 -55 56 -74
80 -19 24 -37 46 -41 49 -9 7 -46 95 -54 128 -3 15 -8 61 -10 103 -4 90 16
131 72 155 113 47 190 -21 210 -186 8 -60 13 -70 37 -65 34 7 87 15 137 21 25
2 54 6 65 8 11 3 23 5 28 5 7 1 6 11 -14 123 -36 206 -147 355 -294 393 -58
15 -161 12 -233 -6z"/>
<path d="M4087 3304 c-1 -1 -20 -5 -42 -8 -108 -15 -132 -18 -154 -19 -22 -1
-23 -3 -17 -61 3 -34 8 -77 11 -96 13 -86 33 -225 42 -290 2 -19 6 -46 8 -60
1 -14 6 -47 9 -75 4 -27 9 -61 12 -75 4 -14 8 -43 9 -65 3 -37 7 -65 20 -135
2 -14 7 -50 11 -80 4 -30 8 -64 10 -75 1 -11 5 -40 8 -65 8 -63 16 -112 20
-135 2 -11 7 -49 11 -85 4 -36 9 -68 11 -71 2 -3 6 -33 9 -65 3 -33 7 -70 10
-84 23 -108 24 -219 3 -259 -24 -48 -48 -62 -129 -75 -34 -5 -103 26 -123 56
-20 30 -42 118 -51 199 -4 35 -9 73 -11 84 -5 25 -13 79 -19 130 -2 22 -7 57
-11 78 -7 45 -11 73 -20 152 -3 33 -8 63 -10 66 -2 3 -6 33 -9 65 -4 32 -8 70
-11 84 -5 31 -11 70 -20 135 -3 28 -8 59 -9 70 -2 11 -6 43 -9 70 -3 28 -8 61
-11 75 -4 24 -6 36 -20 145 -4 28 -9 61 -11 75 -2 14 -13 90 -24 169 -11 80
-22 147 -24 149 -4 3 -155 -19 -251 -37 -22 -4 -39 -12 -39 -17 1 -5 5 -34 8
-64 4 -30 8 -66 11 -80 2 -14 6 -43 9 -65 3 -22 10 -74 16 -115 5 -41 13 -93
15 -115 3 -22 8 -51 10 -65 2 -14 7 -44 10 -67 8 -69 15 -117 19 -138 2 -11 7
-49 11 -85 4 -36 9 -68 11 -72 2 -3 6 -30 9 -60 3 -29 6 -62 9 -73 2 -11 7
-42 10 -70 4 -27 8 -61 11 -75 6 -36 17 -120 20 -155 1 -17 5 -44 9 -60 3 -17
8 -50 11 -75 3 -25 7 -56 10 -70 3 -14 7 -41 9 -60 16 -128 51 -238 102 -317
81 -127 193 -183 350 -177 95 4 115 7 177 29 177 60 270 223 261 457 -2 51 -5
104 -8 118 -2 14 -7 48 -10 75 -4 28 -9 61 -11 75 -3 14 -7 48 -10 75 -3 28
-9 63 -12 80 -3 16 -7 45 -9 64 -2 19 -6 50 -9 70 -4 20 -8 51 -10 70 -3 19
-7 48 -9 65 -14 86 -19 123 -32 226 -3 25 -7 56 -10 70 -6 34 -12 76 -19 135
-3 28 -8 59 -10 70 -2 11 -7 43 -10 70 -9 71 -15 117 -20 140 -7 34 -19 138
-20 168 0 15 -4 27 -8 27 -5 0 -6 3 -4 8 3 4 2 27 -2 52 -5 41 -9 45 -34 45
-15 1 -29 0 -30 -1z"/>
<path d="M2718 3125 c-2 -2 -24 -6 -49 -9 -138 -17 -235 -70 -320 -174 -20
-24 -60 -135 -67 -181 -10 -78 -2 -287 13 -311 2 -3 6 -37 10 -75 4 -39 9 -73
11 -76 2 -3 6 -30 9 -60 4 -30 8 -63 10 -74 1 -11 6 -47 10 -80 4 -33 9 -69
11 -79 4 -20 20 -138 29 -211 3 -21 7 -50 10 -64 2 -14 7 -45 10 -69 10 -83
15 -117 20 -142 3 -14 7 -45 10 -70 2 -25 7 -56 10 -70 4 -14 9 -38 11 -54 9
-45 42 -125 76 -180 26 -44 119 -139 122 -126 1 3 15 -5 31 -16 75 -53 248
-60 380 -14 174 60 272 210 277 422 1 53 -8 161 -17 208 -5 26 -11 64 -20 140
-3 25 -7 56 -10 70 -3 14 -7 41 -9 60 -4 32 -9 65 -21 155 -2 17 -8 64 -14
105 -6 41 -13 95 -16 120 -3 25 -7 52 -10 60 -4 16 -13 84 -21 159 -2 25 -6
53 -9 61 -2 8 -7 39 -10 69 -37 305 -174 478 -395 498 -25 2 -50 5 -57 8 -6 2
-13 2 -15 0z m92 -335 c31 -22 56 -69 65 -120 3 -19 8 -42 10 -50 2 -8 7 -42
10 -75 3 -33 8 -67 10 -75 2 -8 6 -35 9 -60 9 -76 16 -124 21 -150 2 -14 7
-47 10 -75 3 -27 7 -61 10 -75 3 -14 7 -44 10 -67 3 -24 10 -75 15 -115 6 -40
13 -89 15 -108 3 -19 7 -46 10 -59 2 -13 7 -49 10 -80 4 -31 8 -63 10 -71 6
-25 18 -123 19 -165 2 -51 -11 -105 -32 -129 -59 -66 -189 -63 -234 6 -18 27
-40 92 -44 128 -2 14 -5 41 -7 60 -3 19 -8 58 -11 85 -4 28 -9 59 -11 70 -2
11 -7 43 -10 70 -3 28 -8 59 -10 70 -2 11 -7 47 -11 79 -3 33 -8 69 -10 80 -2
12 -7 41 -10 66 -3 25 -7 56 -9 70 -3 14 -7 45 -10 70 -3 25 -10 74 -15 110
-6 36 -12 81 -14 100 -3 19 -7 46 -9 60 -21 106 -28 233 -16 276 11 39 53 81
93 94 42 12 103 4 136 -20z"/>
<path d="M1965 3019 c-22 -4 -62 -10 -90 -14 -27 -3 -66 -8 -85 -12 -36 -7
-66 -11 -88 -12 -7 -1 -11 -4 -9 -8 3 -5 8 -33 11 -64 4 -31 9 -67 11 -80 3
-13 8 -49 11 -79 3 -30 7 -57 9 -60 2 -3 6 -34 10 -70 4 -36 9 -68 11 -72 2
-3 6 -33 9 -65 3 -32 7 -69 10 -83 3 -14 7 -41 10 -60 8 -71 17 -135 20 -140
2 -3 6 -34 10 -70 3 -36 8 -72 10 -80 2 -8 7 -40 10 -70 4 -30 10 -76 14 -102
6 -33 4 -48 -3 -50 -6 0 -15 -2 -21 -3 -71 -12 -97 -15 -135 -20 -25 -3 -56
-8 -70 -10 -24 -4 -109 -16 -120 -17 -18 -1 -30 3 -26 10 2 4 1 28 -4 52 -5
25 -11 72 -15 105 -3 33 -8 67 -11 76 -3 9 -7 39 -10 65 -2 27 -7 63 -10 79
-3 17 -7 41 -9 55 -7 69 -17 137 -20 150 -2 8 -7 40 -10 70 -3 30 -8 62 -10
70 -2 8 -7 42 -10 75 -4 32 -8 62 -10 65 -1 3 -6 32 -9 65 -4 33 -9 67 -11 75
-3 8 -7 39 -9 69 -3 30 -10 57 -16 61 -6 4 -31 4 -54 -1 -23 -4 -64 -10 -92
-13 -27 -4 -76 -11 -109 -16 -33 -5 -63 -10 -67 -10 -4 0 -5 -6 -3 -12 3 -7 7
-31 10 -53 5 -38 7 -53 20 -150 2 -22 7 -50 9 -62 3 -12 7 -46 11 -75 3 -29 8
-64 10 -78 10 -75 16 -118 20 -140 3 -14 7 -45 10 -69 3 -23 7 -55 9 -70 8
-48 26 -176 31 -216 3 -22 7 -51 10 -65 2 -14 7 -45 10 -70 3 -25 13 -90 21
-145 8 -55 17 -120 20 -145 3 -25 8 -56 10 -70 2 -14 6 -41 8 -60 3 -19 7 -48
10 -65 7 -47 16 -106 22 -155 3 -25 7 -54 9 -65 2 -11 6 -40 9 -65 7 -47 20
-141 32 -225 4 -27 9 -61 11 -75 1 -14 4 -36 7 -50 2 -14 7 -48 10 -75 4 -28
10 -66 13 -85 7 -46 10 -70 12 -100 3 -54 -6 -53 260 -51 l83 1 -6 33 c-3 17
-8 55 -11 82 -3 28 -8 64 -12 80 -3 17 -7 41 -8 55 -1 14 -8 59 -14 100 -6 41
-13 93 -16 115 -2 22 -9 72 -15 110 -20 139 -30 211 -35 250 -2 22 -6 51 -9
65 -10 51 -14 110 -8 111 4 0 15 2 24 4 25 5 97 15 148 21 25 3 56 7 70 9 14
3 49 7 78 11 50 6 52 5 53 -18 0 -12 2 -32 4 -43 2 -11 7 -40 10 -65 9 -70 25
-197 30 -227 9 -61 26 -191 30 -233 6 -50 13 -95 19 -125 3 -18 15 -108 21
-160 3 -32 17 -138 21 -155 1 -8 3 -17 3 -20 1 -3 79 -5 174 -4 l172 0 -2 25
c-3 49 -15 153 -18 159 -2 3 -6 30 -9 60 -3 30 -8 64 -10 75 -5 27 -15 100
-21 155 -3 25 -7 56 -10 70 -3 14 -8 49 -11 79 -3 30 -8 64 -10 75 -2 11 -6
38 -9 61 -3 22 -10 72 -16 110 -5 39 -11 84 -13 100 -2 17 -7 50 -11 75 -3 25
-8 56 -10 70 -6 42 -14 103 -20 145 -3 23 -7 50 -9 60 -2 11 -7 45 -10 76 -4
31 -8 65 -10 75 -2 11 -7 44 -11 74 -4 30 -9 64 -11 75 -2 11 -6 40 -9 65 -2
25 -6 54 -9 65 -2 11 -7 47 -10 80 -4 33 -9 67 -12 76 -2 9 -6 36 -9 60 -4 44
-31 244 -41 309 -3 19 -7 51 -9 70 -2 19 -6 50 -9 68 -11 61 -15 87 -21 136
-11 100 -9 98 -80 85z"/>
</g>
</svg>
