<svg xmlns="http://www.w3.org/2000/svg" xmlns:xlink="http://www.w3.org/1999/xlink" version="1.1" id="Layer_1" x="0px" y="0px" style="enable-background:new 0 0 595.28 595.28;" xml:space="preserve" viewBox="156.75 138.4 279.84 316.46"><style type="text/css">	.st0{fill:#E6332A;}</style><g>	<path class="st0" d="M431.1,220.58l-128.33-78.48l-6.05-3.7l-6.02,3.75l-128.52,79.94l-5.43,3.38v6.39v211.5v11.5h11.5h126.32h2.69   l2.41-1.19l20.93-10.36l91.79,0l12.7-12.99l-0.01-38.72l5.11-2.53l6.4-3.17v-7.14V230.39v-6.45L431.1,220.58z M414.5,417.8   c-0.07,1.32-0.28,2.61-0.77,3.84c-0.43,1.09-1.04,2.08-1.81,2.96c-0.52,0.6-1.06,1.2-1.64,1.75c-0.85,0.81-1.74,1.6-2.62,2.38   c-1.15,1.02-2.32,2.01-3.47,3.03c-1.21,1.08-2.39,2.18-3.58,3.27c-0.01,0.01-0.02,0.01-0.04,0.02c-0.11-0.1-0.23-0.21-0.34-0.31   c-0.96-0.88-1.91-1.77-2.88-2.64c-1.33-1.18-2.68-2.33-4.01-3.51c-1.02-0.91-2.03-1.83-3.02-2.78c-0.87-0.84-1.63-1.78-2.25-2.83   c-0.44-0.75-0.77-1.54-1-2.37c-0.16-0.58-0.28-1.17-0.34-1.77c-0.04-0.38-0.07-0.75-0.09-1.13c-0.02-0.31-0.03-0.62-0.03-0.93   c0-0.65,0.08-1.29,0.25-1.93c0.36-1.35,1.04-2.51,2.07-3.44c0.91-0.82,1.97-1.36,3.16-1.64c0.73-0.17,1.47-0.22,2.21-0.18   c1.66,0.11,3.11,0.74,4.37,1.82c0.72,0.62,1.32,1.34,1.82,2.14c0.02,0.03,0.04,0.06,0.07,0.11c0.45-0.74,0.97-1.4,1.58-1.98   c1.05-0.99,2.28-1.66,3.7-1.97c0.62-0.13,1.25-0.16,1.87-0.12c1.91,0.12,3.56,0.82,4.88,2.23c0.75,0.8,1.29,1.72,1.58,2.77   c0.13,0.46,0.22,0.93,0.26,1.4C414.52,416.59,414.53,417.2,414.5,417.8z M424.59,378.44l-130,64.34H168.77V232.12l128.01-79.62   l127.82,78.16V378.44z"></path>	<g>					<rect x="203.3" y="222.61" transform="matrix(0.9854 -0.1701 0.1701 0.9854 -42.333 39.5129)" class="st0" width="12.13" height="88.26"></rect>		<polygon class="st0" points="242.83,305.76 231.86,242.26 232.08,242.23 257,303.31 268.95,301.25 253.93,214.27 243.57,216.06     252.55,268.12 252.34,268.16 232.04,218.05 217.45,220.57 232.46,307.54   "></polygon>		<path class="st0" d="M281.51,209.51l-18.26,3.15l15.02,86.98l18.26-3.15c5.94-1.03,10.08-3.62,12.42-7.78    c2.34-4.16,2.9-9.76,1.69-16.8l-7.59-43.99c-1.22-7.04-3.62-12.13-7.22-15.26C292.22,209.53,287.45,208.48,281.51,209.51z     M290.98,229.37l7.81,45.23c0.51,2.98,0.36,5.23-0.46,6.73c-0.82,1.51-2.21,2.43-4.17,2.77l-6.09,1.05l-10.73-62.13l6.09-1.05    c1.96-0.34,3.57,0.07,4.85,1.21C289.57,224.32,290.47,226.39,290.98,229.37z"></path>		<path class="st0" d="M330.21,290.67l-0.77-17.4l13.58-2.35l-0.04-0.25l5.16,16.9l11.95-2.06l-27.41-84.84l-16.19,2.8l2.63,89.12    L330.21,290.67z M326.83,217.29l12.75,42.07l-10.76,1.86l-2.21-43.89L326.83,217.29z"></path>		<polygon class="st0" points="212.19,318.7 218.31,354.11 205.48,356.32 199.37,320.91 187.41,322.98 202.43,409.95 214.39,407.89     207.63,368.75 220.45,366.54 227.21,405.67 239.16,403.61 224.14,316.63   "></polygon>		<path class="st0" d="M273.84,329.29c-1.2-6.96-3.69-12.07-7.46-15.35c-3.77-3.27-8.59-4.4-14.46-3.39    c-5.87,1.01-10.03,3.7-12.49,8.04c-2.46,4.35-3.09,10-1.88,16.96l7.9,45.73c1.2,6.96,3.69,12.07,7.46,15.35    c3.77,3.27,8.59,4.4,14.46,3.39c5.87-1.01,10.03-3.69,12.49-8.04c2.46-4.35,3.09-10,1.88-16.96L273.84,329.29z M265.21,387.6    c-4.13,0.71-6.69-1.79-7.67-7.5l-8.2-47.46c-0.99-5.72,0.58-8.93,4.71-9.64s6.69,1.79,7.67,7.5l8.2,47.46    C270.91,383.67,269.34,386.88,265.21,387.6z"></path>		<path class="st0" d="M315.42,370.23c0.51,2.98,0.36,5.23-0.46,6.73c-0.82,1.51-2.21,2.43-4.17,2.77    c-1.96,0.34-3.57-0.07-4.85-1.21c-1.28-1.14-2.18-3.21-2.69-6.19l-11.63-67.35l-11.95,2.06l11.46,66.35    c1.22,7.04,3.67,12.18,7.36,15.43c3.69,3.25,8.44,4.37,14.23,3.37c5.8-1,9.89-3.65,12.28-7.94c2.39-4.29,2.98-9.96,1.76-17    l-11.46-66.35l-11.52,1.99L315.42,370.23z"></path>		<path class="st0" d="M340.45,295.27c-5.8,1-9.89,3.65-12.28,7.94c-2.39,4.3-2.99,9.88-1.81,16.75c0.87,5.05,2.63,9.42,5.28,13.1    c2.65,3.68,6.87,7.58,12.65,11.7c4.58,3.22,7.84,6.09,9.77,8.61c1.93,2.53,3.21,5.61,3.84,9.25c0.53,3.07,0.39,5.37-0.43,6.92    c-0.82,1.55-2.24,2.5-4.26,2.85c-4.13,0.71-6.68-1.75-7.65-7.38l-1.03-5.96l-11.3,1.95l0.86,4.97c1.22,7.04,3.63,12.19,7.26,15.45    c3.62,3.26,8.33,4.38,14.13,3.38c5.87-1.01,10.01-3.69,12.43-8.03c2.42-4.34,3.02-10.07,1.79-17.2    c-0.94-5.47-2.71-10.07-5.29-13.8c-2.59-3.73-6.81-7.65-12.66-11.76c-4.58-3.22-7.86-6.06-9.81-8.54    c-1.96-2.48-3.21-5.29-3.75-8.44c-0.96-5.55,0.55-8.67,4.54-9.36c1.96-0.34,3.56,0.09,4.81,1.28c1.25,1.19,2.13,3.28,2.65,6.26    l0.77,4.47l11.3-1.95l-0.62-3.6c-1.22-7.04-3.62-12.19-7.2-15.45C350.83,295.42,346.17,294.29,340.45,295.27z"></path>		<polygon class="st0" points="413.63,373.49 411.48,361.06 390.83,364.63 386.22,337.91 402.63,335.08 400.49,322.65     384.08,325.49 380.11,302.5 400.76,298.94 398.61,286.51 366.01,292.14 381.03,379.12   "></polygon>	</g></g></svg>