<svg xmlns="http://www.w3.org/2000/svg" xmlns:xlink="http://www.w3.org/1999/xlink" x="0" y="0" version="1.1" viewBox="0 0 314.9 355.9" xml:space="preserve" style="enable-background:new 0 0 314.9 355.9"><style type="text/css">.st0{fill:#fff}</style><g id="Réteg_3"><g><g><path d="M50.3,92.3L65,90.2l15,107.2l-14.7,2.1L50.3,92.3z" class="st0"/><path d="M91.4,116.6l10.9,77.6L89,196.1L74,88.9l18.5-2.6l24.1,62l-9-64.2l13.1-1.8l15,107.2l-15.1,2.1L91.4,116.6z" class="st0"/><path d="M143.6,78.4l23.3-3.3c7.4-1,13.2,0.4,17.5,4.4c4.2,4,7,10.3,8.2,19l7.6,54.2c1.2,8.7,0.3,15.5-2.7,20.5 c-3,5-8.2,8-15.6,9.1l-23.3,3.3L143.6,78.4z M160.5,91.6l10.7,76.6l8.3-1.2c2.3-0.3,4-1.3,5.2-3.1c1.1-1.7,1.4-4.5,0.9-8.4 l-7.8-55.7c-0.5-3.9-1.6-6.5-3.1-7.8c-1.6-1.3-3.5-1.9-5.8-1.5L160.5,91.6z" class="st0"/><path d="M258.9,173.2l-14.9,2.1l-5.3-19.1l-18.1,2.5l0.2,19.8l-13.5,1.9l0-109.3l21.6-3L258.9,173.2z M220.6,143.9 l14.2-2l-14.7-53.2L220.6,143.9z" class="st0"/><path d="M63,336.5H46.4L28.7,211.9l16.6-2.3l8.1,57.6l18.9-2.6l-8.1-57.6l16.9-2.4l18.4,132H81.9l-7.1-52.8L56,286.4 L63,336.5z" class="st0"/><path d="M93.7,229.7c-1.2-8.5-0.2-15.3,3-20.4c3.2-5.1,8.4-8.1,15.7-9.1c7.2-1,13.1,0.5,17.6,4.5 c4.5,4,7.3,10.3,8.5,18.8l7.6,54.6c1.2,8.5,0.2,15.3-3,20.4c-3.2,5.1-8.4,8.1-15.7,9.2c-7.2,1-13.1-0.5-17.6-4.5 c-4.5-4-7.3-10.3-8.5-18.8L93.7,229.7z M116.2,283.3c0.5,3.8,1.6,6.4,3.2,7.7c1.6,1.4,3.6,1.9,5.9,1.5c2.3-0.3,4.1-1.4,5.2-3.1 c1.2-1.7,1.5-4.5,1-8.3l-7.9-56.7c-0.5-3.8-1.6-6.4-3.2-7.7c-1.6-1.4-3.6-1.9-5.9-1.5c-2.3,0.3-4.1,1.4-5.2,3.1 c-1.2,1.7-1.5,4.5-1,8.3L116.2,283.3z" class="st0"/><path d="M157.4,194.4l11.3,81c0.5,3.8,1.6,6.4,3.2,7.7c1.6,1.3,3.6,1.8,5.9,1.5c2.3-0.3,4.1-1.3,5.2-3 c1.2-1.7,1.5-4.4,1-8.2l-11.3-81l13.9-1.9l11.2,80c1.2,8.5,0.2,15.3-2.8,20.4c-3.1,5.1-8.2,8.1-15.5,9.1c-7.2,1-13-0.5-17.4-4.5 c-4.3-4-7.1-10.3-8.3-18.8l-11.2-80L157.4,194.4z" class="st0"/><path d="M199.2,211.5c-1.2-8.3-0.3-14.9,2.5-19.8c2.8-4.9,7.7-7.9,14.5-8.8c6.9-1,12.3,0.5,16.4,4.5 c4.1,4,6.7,10.1,7.8,18.4l0.5,3.2l-13.2,1.8l-0.6-4.2c-0.5-3.7-1.5-6.2-2.9-7.6c-1.4-1.3-3.3-1.9-5.5-1.5c-2.2,0.3-3.8,1.3-4.8,3 c-1,1.7-1.3,4.4-0.7,8.1c0.5,3.5,1.6,6.5,3.3,9c1.7,2.5,3.8,4.8,6.2,6.9c2.4,2.1,4.9,4.2,7.6,6.3c2.7,2.1,5.2,4.4,7.6,6.9 c2.4,2.5,4.6,5.5,6.4,8.9c1.9,3.4,3.1,7.6,3.8,12.4c1.2,8.3,0.3,14.9-2.6,19.8c-2.9,4.9-7.8,7.9-14.6,8.8 c-6.9,1-12.4-0.5-16.5-4.5c-4.1-3.9-6.8-10.1-7.9-18.3l-0.9-6.3l13.2-1.8l1,7.3c0.5,3.7,1.5,6.2,3.1,7.5c1.5,1.3,3.4,1.8,5.6,1.5 c2.2-0.3,3.9-1.3,5-2.9c1.1-1.6,1.4-4.3,0.9-8c-0.5-3.5-1.6-6.5-3.3-9c-1.7-2.5-3.8-4.8-6.2-6.9c-2.4-2.1-4.9-4.2-7.6-6.3 c-2.7-2.1-5.2-4.4-7.6-6.9c-2.4-2.5-4.6-5.5-6.4-8.9C201.2,220.6,199.9,216.4,199.2,211.5z" class="st0"/><path d="M267.4,222.7l18.2-2.5l2,14.5l-18.2,2.5l2.7,19.5l22.9-3.2l0,0l1.4,7.5L262,278.8l-13.8-97.1l36.1-5.1 l2,14.5l-22.9,3.2L267.4,222.7z" class="st0"/></g><path d="M156.4,0L0,98l0.1,257.9h158.8l25-12.8l102.2,0.1l16.1-16.6l0.1-44l12.7-6.5V96.2L156.4,0z M284,316.4 c-0.5,1.2-1.2,2.3-2,3.3c-0.6,0.7-1.2,1.3-1.8,1.9c-0.9,0.9-1.9,1.8-2.9,2.6c-1.3,1.1-2.6,2.2-3.9,3.4c-1.3,1.2-2.7,2.4-4,3.6 c0,0,0,0,0,0c-0.1-0.1-0.3-0.2-0.4-0.3c-1.1-1-2.1-2-3.2-2.9c-1.5-1.3-3-2.6-4.5-3.9c-1.1-1-2.3-2-3.4-3.1c-1-0.9-1.8-2-2.5-3.1 c-0.5-0.8-0.9-1.7-1.1-2.6c-0.2-0.6-0.3-1.3-0.4-2c0-0.4-0.1-0.8-0.1-1.3c0-0.3,0-0.7,0-1c0-0.7,0.1-1.4,0.3-2.1 c0.4-1.5,1.2-2.8,2.3-3.8c1-0.9,2.2-1.5,3.5-1.8c0.8-0.2,1.6-0.2,2.5-0.2c1.8,0.1,3.5,0.8,4.9,2c0.8,0.7,1.5,1.5,2,2.4 c0,0,0,0.1,0.1,0.1c0.5-0.8,1.1-1.6,1.8-2.2c1.2-1.1,2.5-1.8,4.1-2.2c0.7-0.1,1.4-0.2,2.1-0.1c2.1,0.1,4,0.9,5.4,2.5 c0.8,0.9,1.4,1.9,1.8,3.1c0.1,0.5,0.2,1,0.3,1.6c0.1,0.7,0.1,1.3,0,2C284.8,313.6,284.6,315,284,316.4z M302.3,268.4l-146,74.8 H12.7V105l143.8-90.1l145.8,88.5V268.4z" class="st0"/></g></g></svg>