<?xml version="1.0" encoding="utf-8"?><svg version="1.1" id="Layer_1" xmlns="http://www.w3.org/2000/svg" xmlns:xlink="http://www.w3.org/1999/xlink" x="0px" y="0px" viewBox="0 0 122.88 73.3" style="enable-background:new 0 0 122.88 73.3" xml:space="preserve"><g><path d="M69.98,14.08c1.32,0,2.55,0.39,3.58,1.07v-1.77c0-1.81,0.74-3.45,1.93-4.64c1.19-1.19,2.83-1.93,4.64-1.93h0.01 c1.34,0,2.65,0.41,3.75,1.18V6.56c0-1.81,0.74-3.45,1.93-4.64C86.99,0.74,88.63,0,90.44,0c1.81,0,3.45,0.74,4.64,1.93 c1.19,1.19,1.93,2.83,1.93,4.64v1.45c1.05-0.72,2.32-1.14,3.68-1.14c1.81,0,3.45,0.74,4.64,1.93c1.19,1.19,1.93,2.83,1.93,4.64 v27.38c0.08,0.54,0.13,1.09,0.13,1.64l0,0v1.84l0.16-0.15c1.13-1.06,2.23-2.17,2.65-2.58c2.8-2.8,5.82-3.4,8.21-2.64 c1.08,0.34,2.02,0.95,2.75,1.76c0.73,0.81,1.27,1.81,1.53,2.93c0.63,2.65-0.22,5.99-3.52,8.95l-0.05,0.05l0,0l-0.01,0.01 c-3.89,3.92-14.64,16.47-20.97,18.99c-7.05,2.81-20.52,2.13-27.44-2.37c0.62-0.61,1.38-1.34,2.2-2.12 c6.2,3.63,18.26,4.06,24.13,1.73c5.65-2.25,17.08-15.43,19.95-18.33c0.05-0.05,0.09-0.1,0.15-0.15l0.99,1.12l-0.99-1.11 c2.39-2.12,3.05-4.37,2.64-6.08c-0.15-0.62-0.44-1.17-0.83-1.61c-0.39-0.43-0.89-0.76-1.45-0.94c-1.42-0.45-3.3,0-5.2,1.9 c-0.43,0.43-1.59,1.59-2.72,2.65c-1.06,1-2.16,1.95-2.87,2.36c-0.24,0.16-0.53,0.25-0.82,0.25l0,0l-1.18-0.58l-0.35-5.88 c0-11-0.08-17.99-0.08-29.02c0-0.98-0.4-1.88-1.05-2.53c-0.65-0.65-1.54-1.05-2.53-1.05c-0.98,0-1.88,0.4-2.53,1.05 c-0.65,0.65-1.05,1.54-1.05,2.53v22.5h-3.09V6.57c0-0.98-0.4-1.88-1.05-2.53c-0.65-0.65-1.54-1.05-2.53-1.05 c-0.98,0-1.88,0.4-2.53,1.05c-0.65,0.65-1.05,1.54-1.05,2.53v29.38H83.7V13.38c0-0.98-0.4-1.88-1.05-2.53 C82,10.2,81.11,9.8,80.12,9.8c-0.98,0-1.88,0.4-2.53,1.05c-0.65,0.65-1.05,1.55-1.05,2.53v19.45c-0.96-0.42-1.96-0.75-2.99-0.97 V20.65c0-0.98-0.4-1.88-1.05-2.53c-0.65-0.65-1.54-1.05-2.53-1.05c-0.98,0-1.88,0.4-2.53,1.05c-0.65,0.65-1.05,1.55-1.05,2.53 v11.29c-1.13,0.26-2.11,0.62-2.99,1.06V20.65c0-1.81,0.74-3.45,1.93-4.64C66.52,14.82,68.17,14.08,69.98,14.08L69.98,14.08 L69.98,14.08L69.98,14.08z M61.05,42.64c2.49-2.59,4.23-4.83,8.06-5.27c7.19-0.83,13.8,6.53,10.17,13.78 c-1.03,2.06-3.14,4.52-5.46,6.93c-2.55,2.64-5.38,5.23-7.36,7.2l-5.4,5.36l-4.46-4.29c-5.37-5.17-14.12-11.68-14.41-19.74 c-0.2-5.65,4.25-9.27,9.38-9.2C56.14,37.47,58.06,39.74,61.05,42.64L61.05,42.64L61.05,42.64L61.05,42.64z M52.9,14.08 c-1.32,0-2.55,0.39-3.58,1.07v-1.77c0-1.81-0.74-3.45-1.93-4.64c-1.19-1.19-2.83-1.93-4.64-1.93h-0.01c-1.34,0-2.65,0.41-3.75,1.18 V6.56c0-1.81-0.74-3.45-1.93-4.64C35.89,0.74,34.24,0,32.44,0c-1.81,0-3.45,0.74-4.64,1.93c-1.19,1.19-1.93,2.83-1.93,4.64v1.45 c-1.05-0.71-2.32-1.14-3.68-1.14c-1.81,0-3.45,0.74-4.64,1.93c-1.19,1.19-1.93,2.83-1.93,4.64v27.38 c-0.08,0.54-0.13,1.09-0.13,1.64l0,0v1.84l-0.16-0.15c-1.13-1.06-2.23-2.17-2.65-2.58c-2.8-2.8-5.82-3.4-8.21-2.64 c-1.08,0.34-2.02,0.95-2.75,1.76c-0.73,0.81-1.27,1.81-1.53,2.93c-0.63,2.65,0.22,5.99,3.52,8.95l0.05,0.05l0,0l0.01,0.01 c3.89,3.92,14.64,16.47,20.97,18.99c6.85,2.73,19.77,2.17,26.85-2c-0.51-0.47-1.09-1-1.68-1.54l-0.62-0.57 c-6.37,3.27-17.78,3.6-23.43,1.35C20.19,66.62,8.76,53.44,5.89,50.54c-0.05-0.05-0.09-0.1-0.15-0.15l-0.99,1.12l0.99-1.11 c-2.39-2.12-3.05-4.37-2.64-6.08c0.15-0.62,0.44-1.17,0.83-1.61c0.39-0.43,0.89-0.76,1.45-0.94c1.42-0.45,3.3,0,5.2,1.91 c0.43,0.43,1.59,1.59,2.72,2.65c1.06,1,2.16,1.95,2.87,2.36c0.24,0.16,0.53,0.25,0.82,0.25l0,0l1.18-0.58l0.35-5.88 c0-11,0.08-17.99,0.08-29.02c0-0.98,0.4-1.88,1.05-2.53c0.65-0.65,1.54-1.05,2.53-1.05c0.98,0,1.88,0.4,2.53,1.05 c0.65,0.65,1.05,1.54,1.05,2.53v22.5h3.09V6.57c0-0.98,0.4-1.88,1.05-2.53c0.65-0.65,1.54-1.05,2.53-1.05 c0.98,0,1.88,0.4,2.53,1.05c0.65,0.65,1.05,1.54,1.05,2.53v29.38h3.16V13.38c0-0.98,0.4-1.88,1.05-2.53 c0.65-0.65,1.55-1.05,2.53-1.05c0.98,0,1.88,0.4,2.53,1.05c0.65,0.65,1.05,1.55,1.05,2.53v19.03c0.96-0.32,1.96-0.55,2.99-0.68 V20.65c0-0.98,0.4-1.88,1.05-2.53c0.65-0.65,1.55-1.05,2.53-1.05c0.98,0,1.88,0.4,2.53,1.05c0.65,0.65,1.05,1.55,1.05,2.53 c0,4.21,0,7.99,0.01,11.63c1.12,0.34,2.1,0.79,2.99,1.34V20.65c0-1.81-0.74-3.45-1.93-4.64C56.36,14.82,54.71,14.08,52.9,14.08 L52.9,14.08L52.9,14.08L52.9,14.08z"/></g></svg>
